# xmcd
# Track frame offsets:
# 149
# 23955
# 40733
# 68626
# 89757
# 107383
# 130559
# 148861
# 165724
# 185144
# 202054
#
# Disc length: 3058 seconds
# Revision: 0
# Processed by: cddbd v1.4PL0 Copyright (c) Steve Scherf et al.
# Submitted via: VisiTrax 2.9.5.181 - For more info visit www.synapsa.com
#
DISCID=9b0bf10b
DTITLE=X-Man - Next Level
DYEAR=2003
DGENRE=Blues
TTITLE0=Lick It Man
TTITLE1=Gotta Good Woman
TTITLE2=Two Birds
TTITLE3=Know What?
TTITLE4=Fire My Wife
TTITLE5=Leave Him Alone
TTITLE6=L-O-V-E
TTITLE7=Common Ground
TTITLE8=I'm Searching
TTITLE9=Stepper's Shuffle
TTITLE10=Crown Royal (Reggae Soul Mix)
EXTD=
EXTT0=
EXTT1=
EXTT2=
EXTT3=
EXTT4=
EXTT5=
EXTT6=
EXTT7=
EXTT8=
EXTT9=
EXTT10=
PLAYORDER=
